<svg width="19" height="19" viewBox="0 0 19 19" fill="none" xmlns="http://www.w3.org/2000/svg">
<path d="M0.351807 4.29637C0.351807 1.94405 2.25875 0.0371094 4.61107 0.0371094C6.96339 0.0371094 8.87033 1.94405 8.87033 4.29637C8.87033 6.64869 6.96339 8.55563 4.61107 8.55563C2.25875 8.55563 0.351807 6.64869 0.351807 4.29637Z" fill="#560884"/>
<path d="M10.1481 14.0928C10.1481 11.7405 12.055 9.8335 14.4073 9.8335C16.7596 9.8335 18.6666 11.7405 18.6666 14.0928C18.6666 16.4451 16.7596 18.352 14.4073 18.352C12.055 18.352 10.1481 16.4451 10.1481 14.0928Z" fill="#560884"/>
<path d="M0.351807 14.0928C0.351807 11.7405 2.25875 9.8335 4.61107 9.8335C6.96339 9.8335 8.87033 11.7405 8.87033 14.0928C8.87033 16.4451 6.96339 18.352 4.61107 18.352C2.25875 18.352 0.351807 16.4451 0.351807 14.0928Z" fill="#560884"/>
<path fill-rule="evenodd" clip-rule="evenodd" d="M13.7684 3.23158V0.676025H15.4721V3.23158H18.0277V4.93528H15.4721V7.49084H13.7684V4.93528H11.2129V3.23158H13.7684Z" fill="#560884"/>
</svg>
