<svg width="22" height="21" viewBox="0 0 22 21" fill="none" xmlns="http://www.w3.org/2000/svg">
<path d="M1.75 9.25V13.75C1.75 16.5784 1.75 17.9926 2.62868 18.8713C3.50736 19.75 4.92157 19.75 7.75 19.75H13.75C16.5784 19.75 17.9926 19.75 18.8713 18.8713C19.75 17.9926 19.75 16.5784 19.75 13.75V9.25" stroke="#B4AFB3" stroke-width="1.5"/>
<path opacity="0.4" d="M13.75 15.25C13.0659 15.8572 11.9768 16.25 10.75 16.25C9.5232 16.25 8.43409 15.8572 7.75 15.25" stroke="#B4AFB3" stroke-width="1.5" stroke-linecap="round"/>
<path d="M6.72071 7.25L7.4452 7.05605C7.34787 6.69245 6.9961 6.45732 6.62291 6.5064C6.24971 6.55549 5.97071 6.87359 5.97071 7.25H6.72071ZM14.7793 7.25H15.5293C15.5293 6.87359 15.2503 6.55549 14.8771 6.5064C14.5039 6.45732 14.1521 6.69245 14.0548 7.05605L14.7793 7.25ZM5.97071 7.25C5.97071 8.4875 4.95869 9.5 3.69875 9.5V11C5.77678 11 7.47071 9.3262 7.47071 7.25H5.97071ZM3.69875 9.5C2.71882 9.5 1.88568 8.8861 1.5663 8.02865L0.160652 8.5522C0.693542 9.9829 2.07767 11 3.69875 11V9.5ZM19.9337 8.02865C19.6143 8.88609 18.7812 9.5 17.8013 9.5V11C19.4223 11 20.8065 9.9829 21.3394 8.5522L19.9337 8.02865ZM17.8013 9.5C16.5413 9.5 15.5293 8.4875 15.5293 7.25H14.0293C14.0293 9.3262 15.7232 11 17.8013 11V9.5ZM10.75 9.5C9.1413 9.5 7.81678 8.4441 7.4452 7.05605L5.99623 7.44395C6.54833 9.5064 8.48155 11 10.75 11V9.5ZM14.0548 7.05605C13.6832 8.4441 12.3587 9.5 10.75 9.5V11C13.0185 11 14.9517 9.5064 15.5038 7.44395L14.0548 7.05605ZM1.85768 6.70185L2.82134 5.0277L1.52133 4.27939L0.557662 5.95355L1.85768 6.70185ZM20.9423 5.95355L19.9787 4.27939L18.6787 5.0277L19.6423 6.70185L20.9423 5.95355ZM4.66511 1.5H16.8349V0H4.66511V1.5ZM19.5586 2.70934C19.5586 1.20786 18.334 0 16.8349 0V1.5C17.5159 1.5 18.0586 2.04659 18.0586 2.70934H19.5586ZM19.9787 4.27939C19.7032 3.80089 19.5586 3.25972 19.5586 2.70934H18.0586C18.0586 3.52286 18.2724 4.322 18.6787 5.0277L19.9787 4.27939ZM3.44143 2.70934C3.44143 2.04659 3.98412 1.5 4.66511 1.5V0C3.16603 0 1.94143 1.20786 1.94143 2.70934H3.44143ZM21.3394 8.5522C21.3823 8.4371 21.4443 8.2769 21.476 8.07441C21.5076 7.87312 21.5053 7.66456 21.4847 7.41669L19.9898 7.54116C20.006 7.73552 19.9992 7.80963 19.9942 7.842C19.9893 7.87315 19.9825 7.89756 19.9337 8.02865L21.3394 8.5522ZM19.6423 6.70185C19.9174 7.17967 19.9685 7.28434 19.9898 7.54116L21.4847 7.41669C21.4324 6.78904 21.2114 6.42106 20.9423 5.95355L19.6423 6.70185ZM2.82134 5.0277C3.22755 4.322 3.44143 3.52286 3.44143 2.70934H1.94143C1.94143 3.25972 1.79676 3.80089 1.52133 4.27939L2.82134 5.0277ZM1.5663 8.02865C1.51747 7.89756 1.51074 7.87315 1.50585 7.842C1.50078 7.80963 1.49397 7.73552 1.51016 7.54116L0.0153316 7.41669C-0.00530843 7.66457 -0.00759837 7.87312 0.0239716 8.07441C0.0557316 8.2769 0.117782 8.4372 0.160652 8.5522L1.5663 8.02865ZM0.557662 5.95355C0.288562 6.42106 0.0675916 6.78904 0.0153316 7.41669L1.51016 7.54116C1.53154 7.28434 1.58264 7.17967 1.85768 6.70185L0.557662 5.95355Z" fill="#B4AFB3"/>
</svg>
