<svg width="23" height="23" viewBox="0 0 23 23" fill="none" xmlns="http://www.w3.org/2000/svg">
<circle cx="11.5" cy="11.5" r="11.5" fill="#CA1212"/>
<path d="M10.134 6.074H11.926L11.786 10.778L11.618 12.962H10.442L10.274 10.792L10.134 6.074ZM11.03 16.084C10.7313 16.084 10.4747 15.9813 10.26 15.776C10.0547 15.5613 9.952 15.3047 9.952 15.006C9.952 14.7073 10.0547 14.4507 10.26 14.236C10.4747 14.0213 10.7313 13.914 11.03 13.914C11.3287 13.914 11.5853 14.0213 11.8 14.236C12.0147 14.4507 12.122 14.7073 12.122 15.006C12.122 15.3047 12.0147 15.5613 11.8 15.776C11.5853 15.9813 11.3287 16.084 11.03 16.084Z" fill="white"/>
</svg>
