<svg width="23" height="23" viewBox="0 0 23 23" fill="none" xmlns="http://www.w3.org/2000/svg">
<circle cx="11.5" cy="11.5" r="11.5" fill="#0C9D57"/>
<path d="M15.8775 7.52038C16.1425 8.00493 15.9645 8.61257 15.48 8.87756C14.1086 9.6275 12.8208 11.1975 11.8374 12.7032C11.3581 13.4372 10.9735 14.1207 10.709 14.6204C10.577 14.8697 10.4756 15.0721 10.4079 15.2105L10.3096 15.4159C10.1551 15.7536 9.8261 15.9782 9.4553 15.9987C9.0844 16.0191 8.73267 15.8323 8.54198 15.5135C8.23126 14.994 7.73753 14.5198 7.27997 14.1581C7.05764 13.9823 6.85752 13.8437 6.71471 13.7502L6.50442 13.6187C6.02493 13.3449 5.85797 12.7344 6.13152 12.2548C6.40513 11.775 7.01585 11.6079 7.49559 11.8815L7.81063 12.0772C7.99282 12.1965 8.2427 12.3697 8.52038 12.5892C8.73258 12.757 8.96984 12.9587 9.2094 13.1911C9.4662 12.7297 9.7872 12.185 10.1629 11.6096C11.1796 10.0529 12.6917 8.12286 14.5204 7.12282C15.0049 6.85782 15.6125 7.03582 15.8775 7.52038Z" fill="white"/>
</svg>
